M48
; DRILL file {KiCad (5.1.10)-1} date 08/26/21 14:39:01
; FORMAT={-:-/ absolute / metric / decimal}
; #@! TF.CreationDate,2021-08-26T14:39:01-04:00
; #@! TF.GenerationSoftware,Kicad,Pcbnew,(5.1.10)-1
FMAT,2
METRIC
T1C0.700
T2C0.800
T3C0.950
T4C1.000
T5C3.200
%
G90
G05
T1
X4.064Y29.21
X4.064Y13.97
X6.604Y29.21
X6.604Y13.97
X9.144Y29.21
X9.144Y13.97
X11.684Y29.21
X11.684Y13.97
X14.224Y29.21
X14.224Y13.97
X16.764Y29.21
X16.764Y13.97
X19.304Y29.21
X19.304Y13.97
X21.844Y29.21
X21.844Y13.97
X24.384Y29.21
X24.384Y13.97
X26.924Y29.21
X26.924Y13.97
X28.194Y35.052
X28.194Y32.512
X29.464Y29.21
X29.464Y13.97
X30.988Y37.084
X30.988Y34.544
X32.004Y29.21
X32.004Y13.97
X33.782Y39.116
X33.782Y36.576
X44.45Y36.068
X44.45Y33.528
T2
X19.304Y5.08
X19.558Y9.652
X21.844Y5.08
X22.098Y9.652
X24.638Y9.652
X24.638Y5.08
X27.178Y9.652
X27.178Y5.08
X38.1Y22.86
X38.1Y17.86
X42.926Y22.86
X42.926Y17.86
X44.45Y30.48
X44.45Y25.48
X48.768Y30.48
X48.768Y25.48
T3
X38.1Y37.432
X38.1Y34.932
X38.1Y32.432
X38.1Y29.932
X38.1Y27.432
X40.132Y8.382
X42.632Y8.382
X45.132Y8.382
X47.632Y8.382
T4
X11.978Y35.56
X11.978Y7.62
X14.478Y35.56
X14.478Y7.62
X21.082Y36.576
X23.582Y36.576
X33.528Y8.89
X33.528Y6.39
T5
X5.334Y36.576
X5.334Y4.572
T0
M30
